<svg width="32" height="32" viewBox="0 0 32 32" fill="none" xmlns="http://www.w3.org/2000/svg">
  <!-- Background circle with gradient -->
  <defs>
    <linearGradient id="bgGradient" x1="0%" y1="0%" x2="100%" y2="100%">
      <stop offset="0%" style="stop-color:#000080;stop-opacity:1" />
      <stop offset="100%" style="stop-color:#ff6600;stop-opacity:1" />
    </linearGradient>
    <filter id="shadow" x="-20%" y="-20%" width="140%" height="140%">
      <feDropShadow dx="0" dy="2" stdDeviation="1" flood-color="#000000" flood-opacity="0.3"/>
    </filter>
  </defs>
  
  <!-- Background -->
  <circle cx="16" cy="16" r="15" fill="url(#bgGradient)" stroke="#ffffff" stroke-width="1"/>
  
  <!-- Letter S -->
  <path d="M8 12C8 10.5 9 9.5 10.5 9.5C11.5 9.5 12.5 10 13 11C13.5 12 13.5 13 13 14C12.5 15 11.5 15.5 10.5 15.5C9.5 15.5 8.5 15 8 14.5" 
        stroke="#ffffff" stroke-width="2" stroke-linecap="round" stroke-linejoin="round" fill="none"/>
  
  <!-- Letter D -->
  <path d="M18 9.5H20.5C22 9.5 23 10.5 23 12V20C23 21.5 22 22.5 20.5 22.5H18V9.5Z" 
        stroke="#ffffff" stroke-width="2" stroke-linecap="round" stroke-linejoin="round" fill="none"/>
  
  <!-- Decorative accent -->
  <circle cx="24" cy="8" r="2" fill="#ff6600" opacity="0.8"/>
</svg>
